<svg width="26" height="25" viewBox="0 0 26 25" fill="none" xmlns="http://www.w3.org/2000/svg">
<path d="M17.3412 0.295898H7.88582C3.52687 0.295898 0 3.7496 0 8.01812V17.2774C0 21.5366 3.52687 24.9996 7.88582 24.9996H17.3412C21.6907 24.9996 25.2271 21.5459 25.2271 17.2774V8.01812C25.2271 3.7496 21.7002 0.295898 17.3412 0.295898ZM22.8632 17.2774C22.8632 20.2589 20.3859 22.6848 17.3412 22.6848H7.88582C4.84118 22.6848 2.36386 20.2589 2.36386 17.2774V8.01812C2.36386 5.03664 4.84118 2.61071 7.88582 2.61071H17.3412C20.3859 2.61071 22.8632 5.03664 22.8632 8.01812V17.2774Z" fill="white"/>
<path d="M12.6154 6.47168C9.13577 6.47168 6.30859 9.2402 6.30859 12.6476C6.30859 16.055 9.13577 18.8235 12.6154 18.8235C16.095 18.8235 18.9221 16.055 18.9221 12.6476C18.9221 9.2402 16.095 6.47168 12.6154 6.47168ZM12.6154 16.5087C10.4406 16.5087 8.67245 14.7772 8.67245 12.6476C8.67245 10.518 10.4406 8.78649 12.6154 8.78649C14.7901 8.78649 16.5583 10.518 16.5583 12.6476C16.5583 14.7772 14.7901 16.5087 12.6154 16.5087Z" fill="white"/>
<path d="M19.3923 6.83272C19.8571 6.83272 20.2338 6.46377 20.2338 6.00864C20.2338 5.55352 19.8571 5.18457 19.3923 5.18457C18.9275 5.18457 18.5508 5.55352 18.5508 6.00864C18.5508 6.46377 18.9275 6.83272 19.3923 6.83272Z" fill="white"/>
</svg>
