<svg width="27" height="21" viewBox="0 0 27 21" fill="none" xmlns="http://www.w3.org/2000/svg">
<path d="M24.2685 3.25926C26.3393 1.91667 26.4244 0.324074 26.4244 0.324074C24.9777 1.62963 22.7367 1.62037 22.7367 1.62037C21.7534 0.62963 20.3918 0 18.8695 0C15.891 0 13.4704 2.37037 13.4704 5.28704C13.4704 5.73148 13.5366 6.15741 13.6406 6.56482C12.6194 6.56482 6.91782 6.32407 2.29412 0.953704C2.29412 0.953704 0.0626361 5.32407 3.77862 7.71296C3.77862 7.71296 3.5706 8.44444 1.44313 7.50926C1.44313 7.50926 1.23511 11.7685 5.58461 12.6019C5.58461 12.6019 4.62961 13.0185 3.35313 12.9167C3.35313 12.9167 4.20411 16.3519 8.4496 16.6574C8.4496 16.6574 7.65534 17.963 0.78125 18.8704C0.78125 18.8704 20.1649 27.6574 23.9943 6.94444C24.174 6.42593 24.2685 5.87037 24.2685 5.28704C26.188 4.37037 27.0011 2.55556 27.0011 2.55556C26.0272 3.12037 24.2685 3.25926 24.2685 3.25926Z" fill="white"/>
</svg>
